<?xml version="1.0" encoding="UTF-8" standalone="no"?>
<!-- Created with Inkscape (http://www.inkscape.org/) -->

<svg
   xmlns:dc="http://purl.org/dc/elements/1.1/"
   xmlns:cc="http://creativecommons.org/ns#"
   xmlns:rdf="http://www.w3.org/1999/02/22-rdf-syntax-ns#"
   xmlns:svg="http://www.w3.org/2000/svg"
   xmlns="http://www.w3.org/2000/svg"
   xmlns:sodipodi="http://sodipodi.sourceforge.net/DTD/sodipodi-0.dtd"
   xmlns:inkscape="http://www.inkscape.org/namespaces/inkscape"
   width="210mm"
   height="297mm"
   viewBox="0 0 744.09448819 1052.3622047"
   id="svg3400"
   version="1.1"
   inkscape:version="0.91 r13725"
   sodipodi:docname="C_tronLogo.svg"
   inkscape:export-filename="/home/golembuilder/csssDocs/csssfrosh2015/mainsite/assets/img/house/C_tronLogo.png"
   inkscape:export-xdpi="18.113523"
   inkscape:export-ydpi="18.113523">
  <defs
     id="defs3402">
    <filter
       inkscape:collect="always"
       style="color-interpolation-filters:sRGB"
       id="filter6180"
       x="-0.072877898"
       width="1.1457558"
       y="-0.071143001"
       height="1.142286">
      <feGaussianBlur
         inkscape:collect="always"
         stdDeviation="16.854141"
         id="feGaussianBlur6182" />
    </filter>
    <filter
       inkscape:collect="always"
       style="color-interpolation-filters:sRGB"
       id="filter6235"
       x="-0.048585265"
       width="1.0971705"
       y="-0.047428667"
       height="1.0948573">
      <feGaussianBlur
         inkscape:collect="always"
         stdDeviation="11.236094"
         id="feGaussianBlur6237" />
    </filter>
  </defs>
  <sodipodi:namedview
     id="base"
     pagecolor="#000000"
     bordercolor="#666666"
     borderopacity="1.0"
     inkscape:pageopacity="0"
     inkscape:pageshadow="2"
     inkscape:zoom="0.98994949"
     inkscape:cx="262.2919"
     inkscape:cy="637.24529"
     inkscape:document-units="px"
     inkscape:current-layer="layer4"
     showgrid="false"
     inkscape:window-width="1366"
     inkscape:window-height="721"
     inkscape:window-x="-2"
     inkscape:window-y="-3"
     inkscape:window-maximized="1"
     showguides="false" />
  <metadata
     id="metadata3405">
    <rdf:RDF>
      <cc:Work
         rdf:about="">
        <dc:format>image/svg+xml</dc:format>
        <dc:type
           rdf:resource="http://purl.org/dc/dcmitype/StillImage" />
        <dc:title></dc:title>
      </cc:Work>
    </rdf:RDF>
  </metadata>
  <g
     inkscape:label="Layer 1"
     inkscape:groupmode="layer"
     id="layer1"
     style="display:inline"
     sodipodi:insensitive="true">
    <g
       transform="translate(1.6883566,-0.3601964)"
       style="display:inline"
       id="g3462-2-6">
      <path
         style="opacity:1;fill:#008000;fill-opacity:0;stroke:#00ff01;stroke-width:6.69999981;stroke-miterlimit:4;stroke-dasharray:none;stroke-opacity:1"
         d="M 384.28516,220.93359 A 284.28571,284.28571 0 0 0 100,505.21875 284.28571,284.28571 0 0 0 384.28516,789.50586 284.28571,284.28571 0 0 0 655.03711,590.82422 l -143.00195,0 A 157.14285,157.14285 0 0 1 382.57227,658.93359 157.14285,157.14285 0 0 1 225.42773,501.79102 157.14285,157.14285 0 0 1 382.57227,344.64844 a 157.14285,157.14285 0 0 1 130.92187,70.4082 l 140.13477,0 A 284.28571,284.28571 0 0 0 384.28516,220.93359 Z"
         id="path3412-8-2"
         inkscape:connector-curvature="0" />
    </g>
  </g>
  <g
     inkscape:groupmode="layer"
     id="layer4"
     inkscape:label="glow (inner)"
     sodipodi:insensitive="true">
    <path
       inkscape:connector-curvature="0"
       style="color:#000000;clip-rule:nonzero;display:inline;overflow:visible;visibility:visible;opacity:1;isolation:auto;mix-blend-mode:normal;color-interpolation:sRGB;color-interpolation-filters:linearRGB;solid-color:#000000;solid-opacity:1;fill:#008000;fill-opacity:0;fill-rule:nonzero;stroke:#00ff01;stroke-width:9.60000038;stroke-linecap:butt;stroke-linejoin:miter;stroke-miterlimit:4;stroke-dasharray:none;stroke-dashoffset:0;stroke-opacity:1;filter:url(#filter6235);color-rendering:auto;image-rendering:auto;shape-rendering:auto;text-rendering:auto;enable-background:accumulate"
       d="M 390.00533,222.5429 A 284.28571,284.28571 0 0 0 105.72017,506.82806 284.28571,284.28571 0 0 0 390.00533,791.11517 284.28571,284.28571 0 0 0 660.75728,592.43353 l -143.00195,0 A 157.14285,157.14285 0 0 1 388.29244,660.5429 157.14285,157.14285 0 0 1 231.1479,503.40033 157.14285,157.14285 0 0 1 388.29244,346.25775 a 157.14285,157.14285 0 0 1 130.92187,70.4082 l 140.13477,0 A 284.28571,284.28571 0 0 0 390.00533,222.5429 Z"
       id="path3412-6-6" />
  </g>
  <g
     inkscape:groupmode="layer"
     id="layer2"
     inkscape:label="glow (outer)"
     style="display:inline"
     sodipodi:insensitive="true">
    <path
       inkscape:connector-curvature="0"
       style="color:#000000;clip-rule:nonzero;display:inline;overflow:visible;visibility:visible;opacity:1;isolation:auto;mix-blend-mode:normal;color-interpolation:sRGB;color-interpolation-filters:linearRGB;solid-color:#000000;solid-opacity:1;fill:#008000;fill-opacity:0;fill-rule:nonzero;stroke:#00ff01;stroke-width:7.5999999;stroke-linecap:butt;stroke-linejoin:miter;stroke-miterlimit:4;stroke-dasharray:none;stroke-dashoffset:0;stroke-opacity:1;filter:url(#filter6180);color-rendering:auto;image-rendering:auto;shape-rendering:auto;text-rendering:auto;enable-background:accumulate"
       d="M 384.94305,220.55309 A 284.28571,284.28571 0 0 0 100.65789,504.83825 284.28571,284.28571 0 0 0 384.94305,789.12536 284.28571,284.28571 0 0 0 655.695,590.44372 l -143.00195,0 A 157.14285,157.14285 0 0 1 383.23016,658.55309 157.14285,157.14285 0 0 1 226.08562,501.41052 157.14285,157.14285 0 0 1 383.23016,344.26794 a 157.14285,157.14285 0 0 1 130.92187,70.4082 l 140.13477,0 A 284.28571,284.28571 0 0 0 384.94305,220.55309 Z"
       id="path3412-6" />
  </g>
</svg>
