<?xml version="1.0" encoding="UTF-8" standalone="no"?>
<!-- Created with Inkscape (http://www.inkscape.org/) -->

<svg
   xmlns:dc="http://purl.org/dc/elements/1.1/"
   xmlns:cc="http://creativecommons.org/ns#"
   xmlns:rdf="http://www.w3.org/1999/02/22-rdf-syntax-ns#"
   xmlns:svg="http://www.w3.org/2000/svg"
   xmlns="http://www.w3.org/2000/svg"
   xmlns:sodipodi="http://sodipodi.sourceforge.net/DTD/sodipodi-0.dtd"
   xmlns:inkscape="http://www.inkscape.org/namespaces/inkscape"
   width="210mm"
   height="297mm"
   viewBox="0 0 744.09448819 1052.3622047"
   id="svg3400"
   version="1.1"
   inkscape:version="0.91 r13725"
   sodipodi:docname="Cpp_tronLogo.svg"
   inkscape:export-filename="/home/golembuilder/csssDocs/csssfrosh2015/mainsite/assets/img/house/C_tronLogo.png"
   inkscape:export-xdpi="18.113523"
   inkscape:export-ydpi="18.113523">
  <defs
     id="defs3402">
    <filter
       inkscape:collect="always"
       style="color-interpolation-filters:sRGB"
       id="filter6180"
       x="-0.072877898"
       width="1.1457558"
       y="-0.071143001"
       height="1.142286">
      <feGaussianBlur
         inkscape:collect="always"
         stdDeviation="16.854141"
         id="feGaussianBlur6182" />
    </filter>
    <filter
       inkscape:collect="always"
       style="color-interpolation-filters:sRGB"
       id="filter6235"
       x="-0.048585265"
       width="1.0971705"
       y="-0.047428667"
       height="1.0948573">
      <feGaussianBlur
         inkscape:collect="always"
         stdDeviation="11.236094"
         id="feGaussianBlur6237" />
    </filter>
    <filter
       inkscape:collect="always"
       style="color-interpolation-filters:sRGB"
       id="filter6453-5"
       x="-0.10838329"
       width="1.2167666"
       y="-0.10838165"
       height="1.2167633">
      <feGaussianBlur
         inkscape:collect="always"
         stdDeviation="5.8250723"
         id="feGaussianBlur6455-3" />
    </filter>
    <filter
       inkscape:collect="always"
       style="color-interpolation-filters:sRGB"
       id="filter6449-7"
       x="-0.10838328"
       width="1.2167666"
       y="-0.10838165"
       height="1.2167633">
      <feGaussianBlur
         inkscape:collect="always"
         stdDeviation="5.8250723"
         id="feGaussianBlur6451-8" />
    </filter>
    <filter
       inkscape:collect="always"
       style="color-interpolation-filters:sRGB"
       id="filter6516"
       x="-0.060000451"
       width="1.1200009"
       y="-0.059999549"
       height="1.1199991">
      <feGaussianBlur
         inkscape:collect="always"
         stdDeviation="3.2247313"
         id="feGaussianBlur6518" />
    </filter>
    <filter
       inkscape:collect="always"
       style="color-interpolation-filters:sRGB"
       id="filter6532"
       x="-0.060000454"
       width="1.1200009"
       y="-0.059999546"
       height="1.1199991">
      <feGaussianBlur
         inkscape:collect="always"
         stdDeviation="3.2247311"
         id="feGaussianBlur6534" />
    </filter>
    <filter
       inkscape:collect="always"
       style="color-interpolation-filters:sRGB"
       id="filter6590"
       x="-0.1950899"
       width="1.3901798"
       y="-0.19508698"
       height="1.390174">
      <feGaussianBlur
         inkscape:collect="always"
         stdDeviation="10.48513"
         id="feGaussianBlur6592" />
    </filter>
    <filter
       inkscape:collect="always"
       style="color-interpolation-filters:sRGB"
       id="filter6594"
       x="-0.19508993"
       width="1.3901799"
       y="-0.19508698"
       height="1.390174">
      <feGaussianBlur
         inkscape:collect="always"
         stdDeviation="10.48513"
         id="feGaussianBlur6596" />
    </filter>
  </defs>
  <sodipodi:namedview
     id="base"
     pagecolor="#000000"
     bordercolor="#666666"
     borderopacity="1.0"
     inkscape:pageopacity="0"
     inkscape:pageshadow="2"
     inkscape:zoom="0.98994949"
     inkscape:cx="257.24114"
     inkscape:cy="556.93817"
     inkscape:document-units="px"
     inkscape:current-layer="layer2"
     showgrid="false"
     inkscape:window-width="1366"
     inkscape:window-height="721"
     inkscape:window-x="-2"
     inkscape:window-y="-3"
     inkscape:window-maximized="1"
     showguides="false" />
  <metadata
     id="metadata3405">
    <rdf:RDF>
      <cc:Work
         rdf:about="">
        <dc:format>image/svg+xml</dc:format>
        <dc:type
           rdf:resource="http://purl.org/dc/dcmitype/StillImage" />
        <dc:title></dc:title>
      </cc:Work>
    </rdf:RDF>
  </metadata>
  <g
     inkscape:label="C Shape"
     inkscape:groupmode="layer"
     id="layer1"
     style="display:inline"
     sodipodi:insensitive="true">
    <g
       transform="translate(1.6883566,-0.3601964)"
       style="display:inline;fill:none;fill-opacity:0;stroke:#00c2ff;stroke-opacity:1"
       id="g3462-2-6">
      <path
         style="opacity:1;fill:none;fill-opacity:0;stroke:#00c2ff;stroke-width:6.69999981;stroke-miterlimit:4;stroke-dasharray:none;stroke-opacity:1"
         d="M 384.28516,220.93359 A 284.28571,284.28571 0 0 0 100,505.21875 284.28571,284.28571 0 0 0 384.28516,789.50586 284.28571,284.28571 0 0 0 655.03711,590.82422 l -143.00195,0 A 157.14285,157.14285 0 0 1 382.57227,658.93359 157.14285,157.14285 0 0 1 225.42773,501.79102 157.14285,157.14285 0 0 1 382.57227,344.64844 a 157.14285,157.14285 0 0 1 130.92187,70.4082 l 140.13477,0 A 284.28571,284.28571 0 0 0 384.28516,220.93359 Z"
         id="path3412-8-2"
         inkscape:connector-curvature="0" />
    </g>
  </g>
  <g
     inkscape:groupmode="layer"
     id="layer4"
     inkscape:label="glow (inner)"
     style="display:inline"
     sodipodi:insensitive="true">
    <path
       inkscape:connector-curvature="0"
       style="color:#000000;clip-rule:nonzero;display:inline;overflow:visible;visibility:visible;opacity:1;isolation:auto;mix-blend-mode:normal;color-interpolation:sRGB;color-interpolation-filters:linearRGB;solid-color:#000000;solid-opacity:1;fill:none;fill-opacity:0;fill-rule:nonzero;stroke:#00c2ff;stroke-width:9.60000038;stroke-linecap:butt;stroke-linejoin:miter;stroke-miterlimit:4;stroke-dasharray:none;stroke-dashoffset:0;stroke-opacity:1;filter:url(#filter6235);color-rendering:auto;image-rendering:auto;shape-rendering:auto;text-rendering:auto;enable-background:accumulate"
       d="M 390.00533,222.5429 A 284.28571,284.28571 0 0 0 105.72017,506.82806 284.28571,284.28571 0 0 0 390.00533,791.11517 284.28571,284.28571 0 0 0 660.75728,592.43353 l -143.00195,0 A 157.14285,157.14285 0 0 1 388.29244,660.5429 157.14285,157.14285 0 0 1 231.1479,503.40033 157.14285,157.14285 0 0 1 388.29244,346.25775 a 157.14285,157.14285 0 0 1 130.92187,70.4082 l 140.13477,0 A 284.28571,284.28571 0 0 0 390.00533,222.5429 Z"
       id="path3412-6-6" />
  </g>
  <g
     inkscape:groupmode="layer"
     id="layer2"
     inkscape:label="glow (outer)"
     style="display:inline">
    <path
       inkscape:connector-curvature="0"
       style="color:#000000;clip-rule:nonzero;display:inline;overflow:visible;visibility:visible;opacity:1;isolation:auto;mix-blend-mode:normal;color-interpolation:sRGB;color-interpolation-filters:linearRGB;solid-color:#000000;solid-opacity:1;fill:none;fill-opacity:0;fill-rule:nonzero;stroke:#00c2ff;stroke-width:7.5999999;stroke-linecap:butt;stroke-linejoin:miter;stroke-miterlimit:4;stroke-dasharray:none;stroke-dashoffset:0;stroke-opacity:1;filter:url(#filter6180);color-rendering:auto;image-rendering:auto;shape-rendering:auto;text-rendering:auto;enable-background:accumulate"
       d="M 384.94305,220.55309 A 284.28571,284.28571 0 0 0 100.65789,504.83825 284.28571,284.28571 0 0 0 384.94305,789.12536 284.28571,284.28571 0 0 0 655.695,590.44372 l -143.00195,0 A 157.14285,157.14285 0 0 1 383.23016,658.55309 157.14285,157.14285 0 0 1 226.08562,501.41052 157.14285,157.14285 0 0 1 383.23016,344.26794 a 157.14285,157.14285 0 0 1 130.92187,70.4082 l 140.13477,0 A 284.28571,284.28571 0 0 0 384.94305,220.55309 Z"
       id="path3412-6"
       inkscape:export-xdpi="17.737482"
       inkscape:export-ydpi="17.737482" />
  </g>
  <g
     inkscape:groupmode="layer"
     id="layer5"
     inkscape:label="Plus Shape"
     sodipodi:insensitive="true">
    <path
       style="color:#000000;clip-rule:nonzero;display:inline;overflow:visible;visibility:visible;opacity:1;isolation:auto;mix-blend-mode:normal;color-interpolation:sRGB;color-interpolation-filters:linearRGB;solid-color:#000000;solid-opacity:1;fill:#00c2ff;fill-opacity:0;fill-rule:nonzero;stroke:#00c2ff;stroke-width:5;stroke-linecap:butt;stroke-linejoin:miter;stroke-miterlimit:4;stroke-dasharray:none;stroke-dashoffset:0;stroke-opacity:1;color-rendering:auto;image-rendering:auto;shape-rendering:auto;text-rendering:auto;enable-background:accumulate"
       d="m 566.6875,436.32422 0,40.42578 -42.91016,0 0,44.13672 42.91016,0 0,44.42773 44.13672,0 0,-44.42773 41.9414,0 0,-44.13672 -41.9414,0 0,-40.42578 -44.13672,0 z"
       id="rect6263"
       inkscape:connector-curvature="0"
       inkscape:transform-center-x="-176.7767"
       inkscape:transform-center-y="1.0101525" />
    <path
       style="color:#000000;clip-rule:nonzero;display:inline;overflow:visible;visibility:visible;opacity:1;isolation:auto;mix-blend-mode:normal;color-interpolation:sRGB;color-interpolation-filters:linearRGB;solid-color:#000000;solid-opacity:1;fill:#00c2ff;fill-opacity:0;fill-rule:nonzero;stroke:#00c2ff;stroke-width:5;stroke-linecap:butt;stroke-linejoin:miter;stroke-miterlimit:4;stroke-dasharray:none;stroke-dashoffset:0;stroke-opacity:1;color-rendering:auto;image-rendering:auto;shape-rendering:auto;text-rendering:auto;enable-background:accumulate"
       d="m 359.62933,437.29334 0,40.42578 -42.91016,0 0,44.13672 42.91016,0 0,44.42773 44.13672,0 0,-44.42773 41.9414,0 0,-44.13672 -41.9414,0 0,-40.42578 -44.13672,0 z"
       id="rect6263-2"
       inkscape:connector-curvature="0"
       inkscape:transform-center-x="-176.7767"
       inkscape:transform-center-y="1.0101525" />
  </g>
  <g
     inkscape:groupmode="layer"
     id="layer6"
     inkscape:label="glow (inner) 1"
     sodipodi:insensitive="true">
    <path
       style="color:#000000;clip-rule:nonzero;display:inline;overflow:visible;visibility:visible;opacity:1;isolation:auto;mix-blend-mode:normal;color-interpolation:sRGB;color-interpolation-filters:linearRGB;solid-color:#000000;solid-opacity:1;fill:#00c2ff;fill-opacity:0;fill-rule:nonzero;stroke:#00c2ff;stroke-width:5;stroke-linecap:butt;stroke-linejoin:miter;stroke-miterlimit:4;stroke-dasharray:none;stroke-dashoffset:0;stroke-opacity:1;filter:url(#filter6516);color-rendering:auto;image-rendering:auto;shape-rendering:auto;text-rendering:auto;enable-background:accumulate"
       d="m 566.81832,435.61589 0,40.42578 -42.91016,0 0,44.13672 42.91016,0 0,44.42772 44.13672,0 0,-44.42772 41.9414,0 0,-44.13672 -41.9414,0 0,-40.42578 -44.13672,0 z"
       id="rect6263-9"
       inkscape:connector-curvature="0"
       inkscape:transform-center-x="-176.7767"
       inkscape:transform-center-y="1.0101525" />
    <path
       style="color:#000000;clip-rule:nonzero;display:inline;overflow:visible;visibility:visible;opacity:1;isolation:auto;mix-blend-mode:normal;color-interpolation:sRGB;color-interpolation-filters:linearRGB;solid-color:#000000;solid-opacity:1;fill:#00c2ff;fill-opacity:0;fill-rule:nonzero;stroke:#00c2ff;stroke-width:5;stroke-linecap:butt;stroke-linejoin:miter;stroke-miterlimit:4;stroke-dasharray:none;stroke-dashoffset:0;stroke-opacity:1;filter:url(#filter6532);color-rendering:auto;image-rendering:auto;shape-rendering:auto;text-rendering:auto;enable-background:accumulate"
       d="m 359.76016,436.58501 0,40.42578 -42.91016,0 0,44.13672 42.91016,0 0,44.42772 44.13672,0 0,-44.42772 41.94139,0 0,-44.13672 -41.94139,0 0,-40.42578 -44.13672,0 z"
       id="rect6263-2-2"
       inkscape:connector-curvature="0"
       inkscape:transform-center-x="-176.7767"
       inkscape:transform-center-y="1.0101525" />
  </g>
  <g
     inkscape:groupmode="layer"
     id="layer7"
     inkscape:label="glow (outer) 1"
     sodipodi:insensitive="true">
    <path
       style="color:#000000;clip-rule:nonzero;display:inline;overflow:visible;visibility:visible;opacity:1;isolation:auto;mix-blend-mode:normal;color-interpolation:sRGB;color-interpolation-filters:linearRGB;solid-color:#000000;solid-opacity:1;fill:#00c2ff;fill-opacity:0;fill-rule:nonzero;stroke:#00c2ff;stroke-width:9;stroke-linecap:butt;stroke-linejoin:miter;stroke-miterlimit:4;stroke-dasharray:none;stroke-dashoffset:0;stroke-opacity:0;filter:url(#filter6449-7);color-rendering:auto;image-rendering:auto;shape-rendering:auto;text-rendering:auto;enable-background:accumulate"
       d="m 568.77261,438.14383 0,40.42578 -42.91016,0 0,44.13672 42.91016,0 0,44.42771 44.13672,0 0,-44.42771 41.9414,0 0,-44.13672 -41.9414,0 0,-40.42578 -44.13672,0 z"
       id="rect6263-9-2"
       inkscape:connector-curvature="0"
       inkscape:transform-center-x="-176.7767"
       inkscape:transform-center-y="1.0101525" />
    <path
       style="color:#000000;clip-rule:nonzero;display:inline;overflow:visible;visibility:visible;opacity:1;isolation:auto;mix-blend-mode:normal;color-interpolation:sRGB;color-interpolation-filters:linearRGB;solid-color:#000000;solid-opacity:1;fill:#00c2ff;fill-opacity:0;fill-rule:nonzero;stroke:#00c2ff;stroke-width:9;stroke-linecap:butt;stroke-linejoin:miter;stroke-miterlimit:4;stroke-dasharray:none;stroke-dashoffset:0;stroke-opacity:0;filter:url(#filter6453-5);color-rendering:auto;image-rendering:auto;shape-rendering:auto;text-rendering:auto;enable-background:accumulate"
       d="m 361.71445,439.11295 0,40.42578 -42.91016,0 0,44.13672 42.91016,0 0,44.42771 44.13672,0 0,-44.42771 41.94139,0 0,-44.13672 -41.94139,0 0,-40.42578 -44.13672,0 z"
       id="rect6263-2-2-5"
       inkscape:connector-curvature="0"
       inkscape:transform-center-x="-176.7767"
       inkscape:transform-center-y="1.0101525" />
    <path
       style="color:#000000;clip-rule:nonzero;display:inline;overflow:visible;visibility:visible;opacity:1;isolation:auto;mix-blend-mode:normal;color-interpolation:sRGB;color-interpolation-filters:linearRGB;solid-color:#000000;solid-opacity:1;fill:#00c2ff;fill-opacity:0;fill-rule:nonzero;stroke:#00c2ff;stroke-width:10;stroke-linecap:butt;stroke-linejoin:miter;stroke-miterlimit:4;stroke-dasharray:none;stroke-dashoffset:0;stroke-opacity:1;filter:url(#filter6590);color-rendering:auto;image-rendering:auto;shape-rendering:auto;text-rendering:auto;enable-background:accumulate"
       d="m 566.96045,436.23515 0,40.42578 -42.91016,0 0,44.13672 42.91016,0 0,44.42771 44.13672,0 0,-44.42771 41.9414,0 0,-44.13672 -41.9414,0 0,-40.42578 -44.13672,0 z"
       id="rect6263-9-7"
       inkscape:connector-curvature="0"
       inkscape:transform-center-x="-176.7767"
       inkscape:transform-center-y="1.0101525" />
    <path
       style="color:#000000;clip-rule:nonzero;display:inline;overflow:visible;visibility:visible;opacity:1;isolation:auto;mix-blend-mode:normal;color-interpolation:sRGB;color-interpolation-filters:linearRGB;solid-color:#000000;solid-opacity:1;fill:#00c2ff;fill-opacity:0;fill-rule:nonzero;stroke:#00c2ff;stroke-width:10;stroke-linecap:butt;stroke-linejoin:miter;stroke-miterlimit:4;stroke-dasharray:none;stroke-dashoffset:0;stroke-opacity:1;filter:url(#filter6594);color-rendering:auto;image-rendering:auto;shape-rendering:auto;text-rendering:auto;enable-background:accumulate"
       d="m 359.9023,437.20427 0,40.42578 -42.91016,0 0,44.13672 42.91016,0 0,44.42771 44.13672,0 0,-44.42771 41.94138,0 0,-44.13672 -41.94138,0 0,-40.42578 -44.13672,0 z"
       id="rect6263-2-2-1"
       inkscape:connector-curvature="0"
       inkscape:transform-center-x="-176.7767"
       inkscape:transform-center-y="1.0101525" />
  </g>
</svg>
