<?xml version="1.0" encoding="UTF-8" standalone="no"?>
<!-- Created with Inkscape (http://www.inkscape.org/) -->

<svg
   xmlns:dc="http://purl.org/dc/elements/1.1/"
   xmlns:cc="http://creativecommons.org/ns#"
   xmlns:rdf="http://www.w3.org/1999/02/22-rdf-syntax-ns#"
   xmlns:svg="http://www.w3.org/2000/svg"
   xmlns="http://www.w3.org/2000/svg"
   xmlns:sodipodi="http://sodipodi.sourceforge.net/DTD/sodipodi-0.dtd"
   xmlns:inkscape="http://www.inkscape.org/namespaces/inkscape"
   width="210mm"
   height="297mm"
   viewBox="0 0 744.09448819 1052.3622047"
   id="svg5180"
   version="1.1"
   inkscape:version="0.91 r13725"
   sodipodi:docname="SQL_tronLogo.svg"
   inkscape:export-filename="/home/golembuilder/csssDocs/csssfrosh2015/mainsite/assets/img/house/SQL_tronLogo.png"
   inkscape:export-xdpi="14.441438"
   inkscape:export-ydpi="14.441438">
  <defs
     id="defs5182">
    <filter
       inkscape:collect="always"
       style="color-interpolation-filters:sRGB"
       id="filter5772"
       x="-0.059449122"
       width="1.1188982"
       y="-0.060561183"
       height="1.1211224">
      <feGaussianBlur
         inkscape:collect="always"
         stdDeviation="15.589315"
         id="feGaussianBlur5774" />
    </filter>
    <filter
       inkscape:collect="always"
       style="color-interpolation-filters:sRGB"
       id="filter5776"
       x="-1.0920855"
       width="3.1841709"
       y="-0.91031456"
       height="2.8206291">
      <feGaussianBlur
         inkscape:collect="always"
         stdDeviation="15.589315"
         id="feGaussianBlur5778" />
    </filter>
    <filter
       inkscape:collect="always"
       style="color-interpolation-filters:sRGB"
       id="filter5788"
       x="-0.11889824"
       width="1.2377965"
       y="-0.12112236"
       height="1.2422447">
      <feGaussianBlur
         inkscape:collect="always"
         stdDeviation="31.17863"
         id="feGaussianBlur5790" />
    </filter>
    <filter
       inkscape:collect="always"
       style="color-interpolation-filters:sRGB"
       id="filter5792"
       x="-2.1841709"
       width="5.3683418"
       y="-1.8206291"
       height="4.6412582">
      <feGaussianBlur
         inkscape:collect="always"
         stdDeviation="31.17863"
         id="feGaussianBlur5794" />
    </filter>
  </defs>
  <sodipodi:namedview
     id="base"
     pagecolor="#000000"
     bordercolor="#666666"
     borderopacity="1.0"
     inkscape:pageopacity="0"
     inkscape:pageshadow="2"
     inkscape:zoom="0.35"
     inkscape:cx="-82.142857"
     inkscape:cy="520"
     inkscape:document-units="px"
     inkscape:current-layer="layer7"
     showgrid="false"
     inkscape:window-width="1366"
     inkscape:window-height="721"
     inkscape:window-x="-2"
     inkscape:window-y="-3"
     inkscape:window-maximized="1" />
  <metadata
     id="metadata5185">
    <rdf:RDF>
      <cc:Work
         rdf:about="">
        <dc:format>image/svg+xml</dc:format>
        <dc:type
           rdf:resource="http://purl.org/dc/dcmitype/StillImage" />
        <dc:title></dc:title>
      </cc:Work>
    </rdf:RDF>
  </metadata>
  <g
     inkscape:label="logo"
     inkscape:groupmode="layer"
     id="layer1"
     sodipodi:insensitive="true">
    <path
       d="m 627.24811,579.78519 c -34.25954,-0.85691 -60.79101,2.56174 -83.04234,11.98628 -6.42023,2.56538 -16.68164,2.56538 -17.55961,10.6995 3.4479,3.41865 3.85945,8.97736 6.87751,13.70748 5.12155,8.56031 14.09342,20.09931 22.24219,26.108 8.99014,6.85191 17.9803,13.6755 27.40945,19.66678 16.68163,10.31721 35.52164,16.28382 51.76428,26.56169 9.44744,5.98395 18.83086,13.68274 28.2783,20.12039 4.69171,3.42229 7.66403,8.99565 13.68188,11.11378 l 0,-1.29685 c -3.01806,-3.8403 -3.85948,-9.40633 -6.84095,-13.71114 -4.271,-4.24724 -8.5603,-8.12411 -12.84961,-12.38597 -12.41977,-16.69077 -27.84847,-31.23051 -44.50264,-43.21677 -13.70932,-9.44195 -43.68871,-22.28514 -49.23095,-38.0751 0,0 -0.44851,-0.45364 -0.86884,-0.87519 9.42,-0.86885 20.56853,-4.29845 29.54953,-6.89494 14.53241,-3.84118 27.80273,-2.97234 42.78328,-6.8135 6.85921,-1.72486 13.70931,-3.87957 20.58682,-5.98395 l 0,-3.87957 c -7.74635,-7.68783 -13.2886,-17.97666 -21.41906,-25.24656 -21.81235,-18.82721 -45.81049,-37.21907 -70.63173,-52.65229 -13.28861,-8.56308 -30.40923,-14.10073 -44.53923,-21.39528 -5.11241,-2.57271 -13.66357,-3.8403 -16.6725,-8.14511 -7.70976,-9.41365 -12.0082,-21.81051 -17.5596,-32.95719 -12.40149,-23.51623 -24.4097,-49.61786 -35.0918,-74.48482 -7.70062,-16.68163 -12.41063,-33.36328 -21.83063,-48.78282 -44.10939,-72.78094 -92.0325,-116.84459 -165.65484,-160.08514 -15.84023,-8.99931 -34.6711,-12.84962 -54.77319,-17.55961 -10.71869,-0.44852 -21.40992,-1.28039 -32.11032,-1.70109 -6.85923,-3.00892 -13.71845,-11.14853 -19.6997,-14.99885 -24.4097,-15.40124 -87.304211,-48.782801 -105.293661,-4.70084 -11.560083,27.8393 17.120614,55.22133 26.970454,69.35133 7.270801,9.83155 16.699937,20.98008 21.812349,32.09202 2.999758,7.27992 3.859458,14.99884 6.868378,22.69031 6.84092,18.83087 13.25202,39.81095 22.26047,57.37055 4.6917,8.99017 9.82241,18.41931 15.81279,26.51319 3.45706,4.73744 9.42914,6.8501 10.71869,14.57814 -5.97211,8.55118 -6.43853,21.39163 -9.85899,32.10118 -15.40125,48.37124 -9.42001,108.29709 12.41975,143.81873 6.83178,10.69951 23.12017,34.2495 44.95078,25.23924 19.26073,-7.69149 14.98056,-32.09116 20.5411,-53.48001 1.28039,-5.17276 0.42069,-8.56675 2.98148,-11.98626 l 0,0.86517 c 5.99039,11.96797 11.99907,23.49602 17.55961,35.52164 13.28862,20.95265 36.38134,42.78781 55.66033,57.32755 10.2431,7.73449 18.38271,20.9819 31.22319,25.70469 l 0,-1.29319 -0.8414,0 c -2.57908,-3.84116 -6.42023,-5.56602 -9.84986,-8.54932 -7.70061,-7.70978 -16.24264,-17.13066 -22.26045,-25.68643 -17.97117,-23.9606 -33.82969,-50.515 -47.92312,-77.90617 -6.86836,-13.30045 -12.84961,-27.84019 -18.41931,-41.10135 -2.56077,-5.1124 -2.56077,-12.83957 -6.85008,-15.40124 -6.43852,9.40625 -15.83109,17.55135 -20.53193,29.07302 -8.13963,18.42757 -8.99017,41.10873 -12.00822,64.6624 -1.70109,0.44704 -0.84141,0 -1.70109,0.85056 -13.68188,-3.4223 -18.39188,-17.545 -23.54086,-29.49103 -12.84048,-30.43118 -14.99884,-79.22589 -3.85031,-114.32683 2.98148,-8.97187 15.85851,-37.22274 10.70038,-45.78305 -2.58821,-8.16704 -11.13938,-12.83132 -15.84024,-19.27899 -5.5514,-8.13047 -11.57836,-18.38273 -15.39208,-27.39117 -10.27969,-23.96156 -15.44698,-50.51132 -26.54064,-74.4729 -5.13984,-11.14853 -14.14828,-22.7086 -21.40078,-32.96085 -8.148748,-11.56007 -17.129766,-19.69054 -23.559146,-33.37242 -2.121795,-4.71914 -5.121551,-12.42892 -1.71023,-17.55047 0.841394,-3.4296 2.579066,-4.71912 6.008677,-5.57882 5.533102,-4.71001 21.391633,1.27123 26.943039,3.84116 15.84938,6.40194 29.11969,12.42892 42.37171,21.40079 5.99954,4.28929 12.41977,12.41975 20.11123,14.57813 l 9.00846,0 c 13.69102,2.97234 29.11054,0.83225 41.96016,4.70084 22.67203,7.27079 43.21313,17.97119 61.63242,29.53126 56.05359,35.53078 102.28477,86.05125 133.51709,146.39414 5.149,9.83156 7.30737,18.83087 12.00823,29.08312 8.99015,21.01665 20.12953,42.41744 29.1014,62.94302 8.98101,20.12039 17.55961,40.64868 30.41838,57.36777 6.40194,8.97371 32.09202,13.68283 43.65209,18.39465 8.54203,3.84022 21.83062,7.26983 29.54039,11.97165 14.55071,8.97367 29.07399,19.26252 42.79242,29.12334 6.83179,5.13705 28.24173,15.8256 29.53125,24.39959"
       style="fill:none;fill-opacity:1;fill-rule:evenodd;stroke:#ffcf00;stroke-width:5;stroke-miterlimit:4;stroke-dasharray:none;stroke-opacity:1"
       id="path5164"
       inkscape:connector-curvature="0" />
    <path
       d="m 190.64475,207.79939 c -7.26163,0 -12.38318,0.87798 -17.55047,2.14922 l 0,0.8597 0.83226,0 c 3.45704,6.83179 9.45658,11.57836 13.70015,17.5596 3.44791,6.85008 6.44769,13.67272 9.86815,20.53195 0.42069,-0.4207 0.83225,-0.86883 0.83225,-0.86883 6.03612,-4.26187 9.02674,-11.10281 9.02674,-21.39165 -2.58822,-3.01806 -2.99062,-5.99039 -5.14901,-8.99928 -2.56076,-4.27102 -8.13044,-6.4111 -11.56007,-9.84071"
       style="fill:none;fill-opacity:1;fill-rule:evenodd;stroke:#ffcf00;stroke-width:5;stroke-miterlimit:4;stroke-dasharray:none;stroke-opacity:1"
       id="path5166"
       inkscape:connector-curvature="0" />
  </g>
  <g
     inkscape:groupmode="layer"
     id="layer6"
     inkscape:label="glow inner"
     sodipodi:insensitive="true">
    <path
       d="m 627.87508,579.92695 c -34.25954,-0.85691 -60.79101,2.56174 -83.04234,11.98628 -6.42023,2.56538 -16.68164,2.56538 -17.55961,10.6995 3.4479,3.41865 3.85945,8.97736 6.87751,13.70748 5.12155,8.56031 14.09342,20.09931 22.24219,26.108 8.99014,6.85191 17.9803,13.6755 27.40945,19.66678 16.68163,10.31721 35.52164,16.28382 51.76428,26.56169 9.44744,5.98395 18.83086,13.68274 28.2783,20.12039 4.69171,3.42229 7.66403,8.99565 13.68188,11.11378 l 0,-1.29685 c -3.01806,-3.8403 -3.85948,-9.40633 -6.84095,-13.71114 -4.271,-4.24724 -8.5603,-8.12411 -12.84961,-12.38597 -12.41977,-16.69077 -27.84847,-31.23051 -44.50264,-43.21677 -13.70932,-9.44195 -43.68871,-22.28514 -49.23095,-38.0751 0,0 -0.44851,-0.45364 -0.86884,-0.87519 9.42,-0.86885 20.56853,-4.29845 29.54953,-6.89494 14.53241,-3.84118 27.80273,-2.97234 42.78328,-6.8135 6.85921,-1.72486 13.70931,-3.87957 20.58682,-5.98395 l 0,-3.87957 c -7.74635,-7.68783 -13.2886,-17.97666 -21.41906,-25.24656 -21.81235,-18.82721 -45.81049,-37.21907 -70.63173,-52.65229 -13.28861,-8.56308 -30.40923,-14.10073 -44.53923,-21.39528 -5.11241,-2.57271 -13.66357,-3.8403 -16.6725,-8.14511 -7.70976,-9.41365 -12.0082,-21.81051 -17.5596,-32.95719 -12.40149,-23.51623 -24.4097,-49.61786 -35.0918,-74.48482 -7.70062,-16.68163 -12.41063,-33.36328 -21.83063,-48.78281 -44.10939,-72.78094 -92.0325,-116.84459 -165.65484,-160.08515 -15.84023,-8.99931 -34.6711,-12.84962 -54.77319,-17.55961 -10.71869,-0.44852 -21.40992,-1.28039 -32.11032,-1.70109 -6.85923,-3.00892 -13.71845,-11.14853 -19.6997,-14.99885 -24.4097,-15.40124 -87.304223,-48.782796 -105.293673,-4.70084 -11.56008,27.8393 17.12062,55.22133 26.97046,69.35133 7.2708,9.83156 16.69994,20.98009 21.812353,32.09203 2.99976,7.27991 3.85946,14.99883 6.86838,22.69031 6.84092,18.83087 13.25202,39.81095 22.26047,57.37055 4.6917,8.99017 9.82241,18.41931 15.81279,26.51319 3.45706,4.73743 9.42914,6.85009 10.71869,14.57813 -5.97211,8.55118 -6.43853,21.39163 -9.85899,32.10118 -15.40125,48.37124 -9.42001,108.29709 12.41975,143.81873 6.83178,10.69951 23.12017,34.2495 44.95078,25.23924 19.26073,-7.69149 14.98056,-32.09116 20.5411,-53.48001 1.28039,-5.17276 0.42069,-8.56675 2.98148,-11.98626 l 0,0.86517 c 5.99039,11.96797 11.99907,23.49602 17.55961,35.52164 13.28862,20.95265 36.38134,42.78781 55.66033,57.32755 10.2431,7.73449 18.38271,20.9819 31.22319,25.70469 l 0,-1.29319 -0.8414,0 c -2.57908,-3.84116 -6.42023,-5.56602 -9.84986,-8.54932 -7.70061,-7.70978 -16.24264,-17.13066 -22.26045,-25.68643 -17.97117,-23.9606 -33.82969,-50.515 -47.92312,-77.90617 -6.86836,-13.30045 -12.84961,-27.84019 -18.41931,-41.10135 -2.56077,-5.1124 -2.56077,-12.83957 -6.85008,-15.40124 -6.43852,9.40625 -15.83109,17.55135 -20.53193,29.07302 -8.13963,18.42757 -8.99017,41.10873 -12.00822,64.6624 -1.70109,0.44704 -0.84141,0 -1.70109,0.85056 -13.68188,-3.4223 -18.39188,-17.545 -23.54086,-29.49103 -12.84048,-30.43118 -14.99884,-79.22589 -3.85031,-114.32683 2.98148,-8.97187 15.85851,-37.22274 10.70038,-45.78305 -2.58821,-8.16703 -11.13938,-12.83131 -15.84024,-19.27898 -5.5514,-8.13047 -11.57836,-18.38273 -15.39208,-27.39117 -10.27969,-23.96156 -15.44698,-50.51133 -26.54064,-74.4729 -5.13984,-11.14853 -14.14828,-22.70861 -21.400783,-32.96086 -8.14875,-11.56007 -17.12977,-19.69054 -23.55915,-33.37242 -2.1218,-4.71914 -5.12155,-12.42892 -1.71023,-17.55047 0.84139,-3.4296 2.57907,-4.71912 6.00868,-5.57882 5.5331,-4.71001 21.39163,1.27123 26.943043,3.84116 15.84938,6.40194 29.11969,12.42892 42.37171,21.40079 5.99954,4.28929 12.41977,12.41975 20.11123,14.57813 l 9.00846,0 c 13.69102,2.97234 29.11054,0.83225 41.96016,4.70084 22.67203,7.27079 43.21313,17.97119 61.63242,29.53127 56.05359,35.53077 102.28477,86.05125 133.51709,146.39413 5.149,9.83156 7.30737,18.83087 12.00823,29.08312 8.99015,21.01665 20.12953,42.41744 29.1014,62.94302 8.98101,20.12039 17.55961,40.64868 30.41838,57.36777 6.40194,8.97371 32.09202,13.68283 43.65209,18.39465 8.54203,3.84022 21.83062,7.26983 29.54039,11.97165 14.55071,8.97367 29.07399,19.26252 42.79242,29.12334 6.83179,5.13705 28.24173,15.8256 29.53125,24.39959"
       style="fill:none;fill-opacity:1;fill-rule:evenodd;stroke:#ffcf00;stroke-width:6;stroke-miterlimit:4;stroke-dasharray:none;stroke-opacity:1;filter:url(#filter5772)"
       id="path5164-5"
       inkscape:connector-curvature="0" />
    <path
       d="m 191.27172,207.94116 c -7.26163,0 -12.38318,0.87798 -17.55047,2.14922 l 0,0.8597 0.83226,0 c 3.45704,6.83179 9.45658,11.57836 13.70015,17.55959 3.44791,6.85008 6.44769,13.67272 9.86815,20.53196 0.42069,-0.4207 0.83225,-0.86883 0.83225,-0.86883 6.03612,-4.26188 9.02674,-11.10282 9.02674,-21.39166 -2.58822,-3.01805 -2.99062,-5.99038 -5.14901,-8.99927 -2.56076,-4.27102 -8.13044,-6.4111 -11.56007,-9.84071"
       style="fill:none;fill-opacity:1;fill-rule:evenodd;stroke:#ffcf00;stroke-width:6;stroke-miterlimit:4;stroke-dasharray:none;stroke-opacity:1;filter:url(#filter5776)"
       id="path5166-8"
       inkscape:connector-curvature="0" />
  </g>
  <g
     inkscape:groupmode="layer"
     id="layer7"
     inkscape:label="glow outer">
    <path
       d="m 626.16079,581.92695 c -34.25954,-0.85691 -60.79101,2.56174 -83.04234,11.98628 -6.42023,2.56538 -16.68164,2.56538 -17.55961,10.6995 3.4479,3.41865 3.85945,8.97736 6.87751,13.70748 5.12155,8.56031 14.09342,20.09931 22.24219,26.108 8.99014,6.85191 17.9803,13.6755 27.40945,19.66678 16.68163,10.31721 35.52164,16.28382 51.76428,26.56169 9.44744,5.98395 18.83086,13.68274 28.2783,20.12039 4.69171,3.42229 7.66403,8.99565 13.68188,11.11378 l 0,-1.29685 c -3.01806,-3.8403 -3.85948,-9.40633 -6.84095,-13.71114 -4.271,-4.24724 -8.5603,-8.12411 -12.84961,-12.38597 -12.41977,-16.69077 -27.84847,-31.23051 -44.50264,-43.21677 -13.70932,-9.44195 -43.68871,-22.28514 -49.23095,-38.0751 0,0 -0.44851,-0.45364 -0.86884,-0.87519 9.42,-0.86885 20.56853,-4.29845 29.54953,-6.89494 14.53241,-3.84118 27.80273,-2.97234 42.78328,-6.8135 6.85921,-1.72486 13.70931,-3.87957 20.58682,-5.98395 l 0,-3.87957 c -7.74635,-7.68783 -13.2886,-17.97666 -21.41906,-25.24656 -21.81235,-18.82721 -45.81049,-37.21907 -70.63173,-52.65229 -13.28861,-8.56308 -30.40923,-14.10073 -44.53923,-21.39528 -5.11241,-2.57271 -13.66357,-3.8403 -16.6725,-8.14511 -7.70976,-9.41365 -12.0082,-21.81051 -17.5596,-32.95719 -12.40149,-23.51623 -24.4097,-49.61786 -35.0918,-74.48482 -7.70062,-16.68163 -12.41063,-33.36328 -21.83063,-48.78282 -44.10939,-72.78094 -92.0325,-116.84459 -165.65484,-160.08514 -15.84023,-8.99931 -34.6711,-12.84962 -54.77319,-17.55961 -10.71869,-0.44852 -21.40992,-1.28039 -32.11032,-1.70109 -6.85923,-3.00892 -13.71845,-11.14853 -19.6997,-14.99885 -24.4097,-15.40124 -87.304214,-48.782799 -105.293663,-4.70084 -11.560083,27.8393 17.120613,55.22133 26.970453,69.35133 7.270802,9.83155 16.699938,20.98008 21.81235,32.09202 2.99976,7.27992 3.85946,14.99884 6.86838,22.69031 6.84092,18.83087 13.25202,39.81095 22.26047,57.37055 4.6917,8.99017 9.82241,18.41931 15.81279,26.51319 3.45706,4.73744 9.42914,6.8501 10.71869,14.57814 -5.97211,8.55118 -6.43853,21.39163 -9.85899,32.10118 -15.40125,48.37124 -9.42001,108.29709 12.41975,143.81873 6.83178,10.69951 23.12017,34.2495 44.95078,25.23924 19.26073,-7.69149 14.98056,-32.09116 20.5411,-53.48001 1.28039,-5.17276 0.42069,-8.56675 2.98148,-11.98626 l 0,0.86517 c 5.99039,11.96797 11.99907,23.49602 17.55961,35.52164 13.28862,20.95265 36.38134,42.78781 55.66033,57.32755 10.2431,7.73449 18.38271,20.9819 31.22319,25.70469 l 0,-1.29319 -0.8414,0 c -2.57908,-3.84116 -6.42023,-5.56602 -9.84986,-8.54932 -7.70061,-7.70978 -16.24264,-17.13066 -22.26045,-25.68643 -17.97117,-23.9606 -33.82969,-50.515 -47.92312,-77.90617 -6.86836,-13.30045 -12.84961,-27.84019 -18.41931,-41.10135 -2.56077,-5.1124 -2.56077,-12.83957 -6.85008,-15.40124 -6.43852,9.40625 -15.83109,17.55135 -20.53193,29.07302 -8.13963,18.42757 -8.99017,41.10873 -12.00822,64.6624 -1.70109,0.44704 -0.84141,0 -1.70109,0.85056 -13.68188,-3.4223 -18.39188,-17.545 -23.54086,-29.49103 -12.84048,-30.43118 -14.99884,-79.22589 -3.85031,-114.32683 2.98148,-8.97187 15.85851,-37.22274 10.70038,-45.78305 -2.58821,-8.16704 -11.13938,-12.83132 -15.84024,-19.27899 -5.5514,-8.13047 -11.57836,-18.38273 -15.39208,-27.39117 -10.27969,-23.96156 -15.44698,-50.51132 -26.54064,-74.4729 -5.13984,-11.14853 -14.14828,-22.7086 -21.400782,-32.96085 -8.148748,-11.56007 -17.129767,-19.69054 -23.559147,-33.37242 -2.121795,-4.71914 -5.121551,-12.42892 -1.71023,-17.55047 0.841394,-3.4296 2.579066,-4.71912 6.008677,-5.57882 5.533102,-4.71001 21.391634,1.27123 26.943042,3.84116 15.84938,6.40194 29.11969,12.42892 42.37171,21.40079 5.99954,4.28929 12.41977,12.41975 20.11123,14.57813 l 9.00846,0 c 13.69102,2.97234 29.11054,0.83225 41.96016,4.70084 22.67203,7.27079 43.21313,17.97119 61.63242,29.53126 56.05359,35.53078 102.28477,86.05125 133.51709,146.39414 5.149,9.83156 7.30737,18.83087 12.00823,29.08312 8.99015,21.01665 20.12953,42.41744 29.1014,62.94302 8.98101,20.12039 17.55961,40.64868 30.41838,57.36777 6.40194,8.97371 32.09202,13.68283 43.65209,18.39465 8.54203,3.84022 21.83062,7.26983 29.54039,11.97165 14.55071,8.97367 29.07399,19.26252 42.79242,29.12334 6.83179,5.13705 28.24173,15.8256 29.53125,24.39959"
       style="fill:none;fill-opacity:1;fill-rule:evenodd;stroke:#ffcf00;stroke-width:9;stroke-miterlimit:4;stroke-dasharray:none;stroke-opacity:1;filter:url(#filter5788)"
       id="path5164-6"
       inkscape:connector-curvature="0" />
    <path
       d="m 189.55743,209.94115 c -7.26163,0 -12.38318,0.87798 -17.55047,2.14922 l 0,0.8597 0.83226,0 c 3.45704,6.83179 9.45658,11.57836 13.70015,17.5596 3.44791,6.85008 6.44769,13.67272 9.86815,20.53195 0.42069,-0.4207 0.83225,-0.86883 0.83225,-0.86883 6.03612,-4.26187 9.02674,-11.10281 9.02674,-21.39165 -2.58822,-3.01806 -2.99062,-5.99039 -5.14901,-8.99928 -2.56076,-4.27102 -8.13044,-6.4111 -11.56007,-9.84071"
       style="fill:none;fill-opacity:1;fill-rule:evenodd;stroke:#ffcf00;stroke-width:9;stroke-miterlimit:4;stroke-dasharray:none;stroke-opacity:1;filter:url(#filter5792)"
       id="path5166-6"
       inkscape:connector-curvature="0" />
  </g>
</svg>
